# xmcd CD database file
#
# Track frame offsets:
#	150
#	2314
#	14275
#	31308
#	42874
#	67101
#	109082
#	116354
#	130071
#	167982
#	186048
#	202986
#	216678
#	237033
#	250157
#	263965
#	319235
#
# Disc length: 4437 seconds
#
# Revision: 1
# Processed by: cddbd v1.4PL0 Copyright (c) Steve Scherf et al.
# Submitted via: CDex 1.50
#
DISCID=e9115311
DTITLE=rev. 99 - Everythign changed after 7-11
DYEAR=2002
DGENRE=Jazz
TTITLE0=Christian Music
TTITLE1=The Price of Bananas
TTITLE2=Britney Spears Autopsy
TTITLE3=Everything's been done before (remix)
TTITLE4=Where'S the 3 Maritini War?
TTITLE5=Radical e piscopalianism
TTITLE6=Etude Brut
TTITLE7=Iron Engineer-99Hooker
TTITLE8=Variable Terror
TTITLE9=The Child's Immortal Soul
TTITLE10=What Happened?
TTITLE11=Iron Engineer-Ross Bonadonna
TTITLE12=Moloch in 'is Oxygen Text
TTITLE13=Man What are You Doing Here
TTITLE14=Iron Engineer-Akio Mokuno
TTITLE15=Howlers
TTITLE16=Notes on a Nervous Breakdown
EXTD=YEAR: 2002
EXTT0=
EXTT1=
EXTT2=
EXTT3=
EXTT4=
EXTT5=
EXTT6=
EXTT7=
EXTT8=
EXTT9=
EXTT10=
EXTT11=
EXTT12=
EXTT13=
EXTT14=
EXTT15=
EXTT16=
PLAYORDER=
